<?xml version="1.0" encoding="utf-8"?>
<!-- Generator: Adobe Illustrator 22.1.0, SVG Export Plug-In . SVG Version: 6.00 Build 0)  -->
<svg version="1.1" id="Layer_1" xmlns="http://www.w3.org/2000/svg" xmlns:xlink="http://www.w3.org/1999/xlink" x="0px" y="0px"
	 viewBox="0 0 1024 768" enable-background="new 0 0 1024 768" xml:space="preserve">
<linearGradient id="SVGID_1_" gradientUnits="userSpaceOnUse" x1="581.90753" y1="138.42743" x2="421.08276" y2="703.37592">
	<stop  offset="0" style="stop-color:#6D1717"/>
	<stop  offset="1" style="stop-color:#6F2D2D"/>
</linearGradient>
<rect fill="url(#SVGID_1_)" width="1024" height="768"/>
<radialGradient id="SVGID_2_" cx="512" cy="1176.47522" r="98.5" gradientTransform="matrix(2.69545 0 0 0.36594 -868.07025 243.47826)" gradientUnits="userSpaceOnUse">
	<stop  offset="0" style="stop-color:#000000;stop-opacity:0.3"/>
	<stop  offset="1" style="stop-color:#000000;stop-opacity:0"/>
</radialGradient>
<ellipse fill="url(#SVGID_2_)" cx="512" cy="674" rx="265.5018" ry="36.04529"/>
<rect y="177.05148" fill="#290000" width="1024" height="413.89703"/>
<g>
	<path fill="#FFFFFF" d="M469.44092,128.86377c0.89844-0.09961,1.74707-0.52441,2.54639-1.27344
		c0.79785-0.74854,1.50928-1.54688,2.13428-2.39648c0.62354-0.84814,1.14795-1.61035,1.57275-2.28418
		c0.42383-0.67383,0.76074-0.98535,1.01123-0.93604c0.14941,0.05029,0.17432,0.57422,0.07471,1.57275
		c-0.10059,0.99902-0.44922,2.10986-1.04834,3.33252c-0.59912,1.22412-1.49805,2.39697-2.69629,3.52002
		c-1.19824,1.12354-2.79688,1.83496-4.79346,2.13477c-0.69971,1.49756-1.54785,3.02148-2.54639,4.56836
		c-0.99902,1.54834-2.22217,2.97119-3.66943,4.26904c-1.79736,1.64746-3.5332,2.5835-5.20508,2.80859
		c-1.67334,0.22461-3.17139,0.05029-4.49365-0.52441c-1.32373-0.57324-2.44727-1.39746-3.37012-2.47168
		c-0.9248-1.07275-1.53564-2.1084-1.83496-3.10791c-0.54883-1.74707-0.69873-3.84424-0.44971-6.29102
		c0.24951-2.4458,0.81104-4.83057,1.68506-7.15234c0.87305-2.32178,2.04688-4.34375,3.52002-6.06641
		c1.47217-1.72266,3.18311-2.73389,5.13037-3.0332c0.49854-1.69678,1.42285-2.78271,2.771-3.25781
		c1.34814-0.47412,2.74561-0.52441,4.19434-0.1499c1.44727,0.37451,2.78271,1.08594,4.00684,2.13428
		c1.22266,1.04883,2.00928,2.27295,2.35889,3.66992c0.34863,1.29883,0.44922,2.90918,0.2998,4.83057
		C470.48926,124.68262,470.08887,126.71777,469.44092,128.86377z M456.63379,124.07031
		c-1.64746,3.396-2.67139,6.50439-3.07031,9.32471c-0.40039,2.82129-0.26221,4.83057,0.41162,6.02881
		c0.67432,1.19824,1.83496,1.31055,3.48242,0.33691c1.64795-0.97363,3.71924-3.55762,6.21631-7.75146
		c-1.89795-0.2998-3.52002-1.18555-4.86816-2.65869C457.45752,127.87842,456.7334,126.11865,456.63379,124.07031z
		 M464.94727,128.48926c0.74854-1.99658,1.16064-3.88135,1.23535-5.6543c0.0752-1.77197-0.05029-3.23242-0.37402-4.38135
		c-0.32568-1.14795-0.8125-1.90967-1.46045-2.28418c-0.6499-0.37451-1.32373-0.16162-2.02246,0.63623
		c0.69873,0.25049,1.20996,0.6123,1.53564,1.08594c0.32373,0.4751,0.38574,0.76221,0.18701,0.86133
		c-0.05029,0.05029-0.1499,0.01318-0.29932-0.1123c-0.1499-0.12402-0.3374-0.22461-0.56201-0.29932
		c-0.22461-0.0752-0.49951-0.09961-0.82373-0.0752c-0.3252,0.02588-0.68701,0.21338-1.08594,0.56201
		c-0.1499,0.5498-0.3125,1.26123-0.48682,2.13428c-0.17578,0.87402-0.2002,1.78564-0.07471,2.73389
		c0.12402,0.94873,0.49805,1.86035,1.12305,2.7334C462.46289,127.30371,463.49854,127.99072,464.94727,128.48926z"/>
	<path fill="#FFFFFF" d="M495.80273,101.52734c0.1499,0,0.24902,0.2251,0.29932,0.67432
		c0.04932,0.44922,0.0376,0.93604-0.03711,1.46045c-0.0752,0.52393-0.1875,1.01074-0.3374,1.46045
		c-0.14941,0.44922-0.34961,0.67383-0.59912,0.67383c-0.10059,0-0.4375,0.01318-1.01074,0.0376
		c-0.57471,0.02588-1.24854,0.0376-2.02246,0.0376c-0.77441,0-1.56104,0.0127-2.35889,0.03711
		c-0.79932,0.02588-1.47314,0.0376-2.02197,0.0376c-0.89893,2.74658-1.96045,5.72949-3.18311,8.94971
		c-1.22412,3.2207-2.40967,6.34131-3.55762,9.36182c-1.14893,3.02148-2.17188,5.7666-3.0708,8.23828
		c-0.89844,2.47168-1.47314,4.30615-1.72217,5.50488c-0.40039,1.69775-0.2998,2.54639,0.29932,2.54639
		s1.34814-0.49854,2.24707-1.49805c1.09766-1.19824,2.18359-2.58398,3.25781-4.15674
		c1.07275-1.57275,2.04639-3.07031,2.9209-4.49365c0.87305-1.42285,1.60986-2.63281,2.20898-3.63232
		c0.59961-0.99805,0.97363-1.49756,1.12354-1.49756c0.1499,0.05029,0.19922,0.67383,0.1499,1.87207
		c-0.05029,1.19824-0.67383,3.0708-1.87256,5.61719c-0.44922,0.94873-1.08594,2.17188-1.90967,3.66992
		c-0.82373,1.49756-1.79736,2.90869-2.9209,4.23145c-1.12305,1.32324-2.37207,2.37207-3.74463,3.14551
		c-1.37354,0.77441-2.80859,0.88672-4.30615,0.33691c-4.74316-1.69678-3.91943-9.93506,2.47119-24.71484
		c1.09766-2.54639,2.07129-5.00488,2.9209-7.37695c0.84863-2.37109,1.54688-4.43066,2.09717-6.17871
		c-1.64795,0.10059-3.12109,0.1377-4.41895,0.1123c-1.29883-0.0249-1.99756-0.01172-2.09668,0.03711
		c-0.10059,0.05029-0.2002-0.08984-0.2998-0.4209c-0.10059-0.33008-0.17529-0.70117-0.22461-1.11084
		c-0.05029-0.40967-0.06299-0.79346-0.0376-1.15137c0.0249-0.35791,0.16162-0.53711,0.41211-0.53711
		c0.19873-0.04102,1.06006-0.09229,2.58398-0.15576c1.52246-0.06201,3.20752-0.13428,5.05518-0.21875
		c0.64844-2.39648,1.04834-4.39307,1.19824-5.9917c0.1499-1.59717,0.1499-2.8833,0-3.85693s-0.38721-1.70947-0.71143-2.20947
		c-0.3252-0.49805-0.67432-0.86084-1.04883-1.08594c-0.37402-0.22461-0.69971-0.34863-0.97314-0.37402
		c-0.27539-0.0249-0.41211-0.08691-0.41211-0.1875c0-0.09961,0.22461-0.18701,0.67383-0.26221
		c0.44971-0.07471,0.99854-0.07471,1.64795,0c0.64795,0.0752,1.29785,0.25049,1.94727,0.52441
		c0.64795,0.2749,1.17236,0.71143,1.57275,1.31055c0.84814-0.04932,1.55957,0.0376,2.13428,0.26221
		c0.57324,0.22461,1.01123,0.66211,1.31055,1.31055c0.2998,0.64941,0.46143,1.56104,0.48682,2.73389
		c0.0249,1.17334-0.1123,2.68408-0.41162,4.53076l-0.67432,2.99561c0.34863,0,0.87305-0.02441,1.57275-0.07471
		c0.69873-0.04932,1.41016-0.09961,2.13477-0.1499c0.72314-0.04883,1.39697-0.1123,2.02197-0.18701
		C495.19043,101.63965,495.60254,101.57764,495.80273,101.52734z"/>
	<path fill="#FFFFFF" d="M514.07617,125.19385c0.14941,0.05029,0.19824,0.67432,0.14941,1.87256
		c-0.0498,1.19824-0.6748,3.07031-1.87256,5.6167c-0.49951,0.94922-1.16064,2.18506-1.98486,3.70752
		c-0.82373,1.52344-1.78564,2.93359-2.8833,4.23145c-1.09863,1.29883-2.32178,2.33447-3.66943,3.10791
		c-1.34814,0.7749-2.79688,0.88721-4.34424,0.3374c-2.44678-0.79834-3.5083-3.30713-3.18262-7.52686
		c0.32373-4.21875,2.48291-10.19727,6.47803-17.93701c-0.64941,0.49951-1.54834,1.33594-2.69629,2.50879
		c-1.14893,1.17383-2.35889,2.52197-3.63232,4.04443c-1.27295,1.52344-2.54639,3.1582-3.81934,4.90527
		c-1.27344,1.74854-2.35938,3.44531-3.25781,5.09277c-0.59912,2.19775-0.97363,3.88281-1.12354,5.05518
		c-0.1499,1.17383-0.2002,2.03516-0.1499,2.58398c0.04932,0.5498,0.1499,0.88721,0.2998,1.01123
		c0.1499,0.125,0.22461,0.2373,0.22461,0.33691c0.04932,0.1499-0.2998,0.18701-1.04834,0.1123
		c-0.74902-0.07471-1.42334-0.41211-2.02246-1.01123c-0.74902,0.05029-1.34814-0.16113-1.79736-0.63623
		c-0.44922-0.47412-0.77441-1.12354-0.97363-1.94727c-0.2002-0.82422-0.27393-1.77197-0.22461-2.84619
		c0.04932-1.07324,0.19873-2.18359,0.44922-3.33252c0.19922-0.94824,0.54883-2.18359,1.04883-3.70752
		c0.49854-1.52246,1.07275-3.18311,1.72217-4.98047c0.64844-1.79736,1.32275-3.61914,2.02246-5.46729
		c0.69873-1.84619,1.35986-3.58203,1.98438-5.20508c0.62402-1.62158,1.16113-3.00732,1.61035-4.15625
		c0.44922-1.14795,0.74902-1.92188,0.89893-2.32178c1.14795-3.49414,1.93408-6.39062,2.35889-8.68799
		c0.42383-2.2959,0.63672-4.16797,0.63672-5.6167c0-1.44775-0.17578-2.53369-0.52441-3.25781
		c-0.34961-0.72314-0.72412-1.24756-1.12305-1.57275c-0.40039-0.32422-0.76221-0.52441-1.08594-0.59912
		c-0.32568-0.0752-0.48682-0.16162-0.48682-0.26221c0-0.09961,0.22461-0.1875,0.67383-0.26221
		c0.44922-0.0752,0.99805-0.06201,1.64746,0.0376c0.64844,0.10059,1.31104,0.2876,1.98486,0.56152
		c0.67383,0.2749,1.20996,0.68701,1.61035,1.23584c0.84814-0.04932,1.54688,0.03711,2.09668,0.26221
		c0.54883,0.22461,0.96094,0.67383,1.23584,1.34766c0.27393,0.67432,0.42383,1.59863,0.44971,2.77148
		c0.02441,1.17334-0.08789,2.68408-0.3374,4.53076c-0.2002,1.34814-0.5874,2.98438-1.16064,4.90576
		c-0.57471,1.92236-1.26172,4.04395-2.05957,6.36572c-0.79932,2.32178-1.67334,4.76855-2.62158,7.33984
		c-0.94873,2.57178-1.92236,5.18018-2.92041,7.82617c2.24658-3.59473,4.54248-6.55322,6.89014-8.875
		c2.34619-2.32178,4.29346-3.83105,5.8418-4.53076c0.44922-0.19922,0.84814-0.17432,1.19824,0.07471
		c0.34863,0.25049,0.66113,0.64941,0.93604,1.19824c0.27393,0.55029,0.49854,1.21143,0.67383,1.98486
		c0.17432,0.77441,0.31152,1.56104,0.41211,2.35889c0,0.40039-0.1499,1.11182-0.44922,2.13477
		c-0.2998,1.02393-0.67432,2.20947-1.12354,3.55713c-0.44922,1.34814-0.94922,2.78418-1.49805,4.30664
		c-0.5498,1.52344-1.06104,2.97119-1.53516,4.34375c-0.4751,1.37402-0.89893,2.58398-1.27344,3.63232
		c-0.37402,1.04834-0.61182,1.77295-0.71143,2.17188c-0.25049,0.84961-0.33691,1.47314-0.26172,1.87256
		c0.07471,0.3999,0.23633,0.625,0.48682,0.67383c0.24902,0.05029,0.58594-0.06201,1.01074-0.33691
		c0.42383-0.27393,0.86133-0.66113,1.31055-1.16064c1.09766-1.19873,2.18359-2.58398,3.25781-4.15674
		c1.07324-1.57275,2.04688-3.0708,2.9209-4.49365c0.87305-1.42285,1.61035-2.63281,2.20947-3.63232
		C513.55078,125.69385,513.92578,125.19385,514.07617,125.19385z"/>
	<path fill="#FFFFFF" d="M533.47266,125.26904c0.19922,0.05029,0.16211,0.73682-0.1123,2.05957
		c-0.27441,1.32324-1.08594,3.18262-2.43457,5.57959c-0.25,0.44922-0.74805,1.32324-1.49707,2.62109
		c-0.74902,1.29883-1.74902,2.62109-2.99609,3.96924c-1.24902,1.34814-2.74609,2.50879-4.49316,3.48242
		c-1.74805,0.97363-3.74512,1.38574-5.99219,1.23584c-0.59863-0.04883-1.39844-0.22461-2.39648-0.52393
		c-0.99902-0.2998-1.93506-0.92334-2.80811-1.87256c-0.87402-0.94775-1.56104-2.32178-2.05957-4.11914
		s-0.54883-4.19385-0.1499-7.18994c0.19922-1.64746,0.57324-3.26953,1.12354-4.86816
		c0.54883-1.59717,1.20996-3.10791,1.98486-4.53076c0.77344-1.42285,1.62207-2.7207,2.5459-3.89453
		c0.92383-1.17236,1.88477-2.15918,2.88379-2.9585c0.34863-0.29932,0.86133-0.63623,1.53516-1.01074
		s1.45996-0.68604,2.35938-0.93652c0.89844-0.24902,1.84668-0.37402,2.8457-0.37402c0.99805,0,1.99707,0.25,2.99512,0.74854
		c0.99902,0.55029,1.71094,1.58594,2.13477,3.1084c0.42383,1.52344,0.1875,3.45801-0.71094,5.8042
		c-0.7002,1.64746-1.61035,3.3457-2.73438,5.09277c-1.12305,1.74805-2.29688,3.27051-3.51953,4.56836
		c-1.22461,1.29883-2.44727,2.19775-3.66992,2.69629c-1.22363,0.49951-2.28418,0.3252-3.18262-0.52441
		c-0.25098,2.89648,0.18652,4.80615,1.31055,5.72949c1.12402,0.92432,2.7334,0.93604,4.83105,0.0376
		c1.59668-0.74902,3.08203-1.89697,4.45508-3.44531c1.37305-1.54688,2.58398-3.09521,3.63281-4.64355
		c1.04883-1.54688,1.93457-2.90771,2.6582-4.08154C532.73633,125.85645,533.22266,125.26904,533.47266,125.26904z
		 M525.16016,120.40088c0.59863-1.79736,0.54883-2.97021-0.15039-3.52002c-0.69922-0.54883-1.87207,0-3.51953,1.64746
		c-0.34961,0.3501-0.77539,0.86133-1.27344,1.53564c-0.5,0.67383-1,1.41113-1.49805,2.20898
		c-0.5,0.79932-0.94922,1.59863-1.34766,2.39697c-0.40039,0.79883-0.67383,1.47314-0.82422,2.02197
		c0.25,0,0.44922,0.06299,0.59961,0.18701c0.14941,0.12549,0.27344,0.23779,0.37402,0.3374
		c0.39941,0.05029,0.71191,0.1626,0.93652,0.33691c0.22461,0.17529,0.33691,0.3125,0.33691,0.41162
		c0,0.10059-0.0752,0.1626-0.22559,0.1875c-0.14844,0.02588-0.33594,0.06299-0.56055,0.1123
		c-0.22461,0.05029-0.44922,0.13818-0.67383,0.26221c-0.22559,0.125-0.41211,0.36279-0.5625,0.71143
		c-0.25,0.69971-0.27539,1.27295-0.07422,1.72266c0.19824,0.44922,0.54883,0.57422,1.04785,0.37451
		c0.34863-0.1499,0.87305-0.63672,1.57324-1.46045c0.69824-0.82422,1.43359-1.78467,2.20898-2.88379
		c0.77344-1.09766,1.49805-2.24658,2.17188-3.44482S524.85938,121.29932,525.16016,120.40088z"/>
	<path fill="#FFFFFF" d="M545.98047,99.13086c-0.25,1.54834-0.72461,3.43359-1.42383,5.65479
		c-0.69922,2.22217-1.50977,4.60596-2.43359,7.15234s-1.89844,5.15576-2.91992,7.82617
		c-1.02441,2.67139-1.98535,5.18066-2.88477,7.52686c-0.89844,2.34717-1.68457,4.45605-2.3584,6.32861
		c-0.6748,1.87207-1.1123,3.30811-1.31055,4.30615c-0.40039,1.69824-0.2998,2.54639,0.2998,2.54639
		c0.59863,0,1.34766-0.49854,2.24609-1.49756c1.09766-1.19873,2.18359-2.58398,3.25781-4.15674
		c1.07324-1.57275,2.04688-3.0708,2.92188-4.49365c0.87305-1.42285,1.60938-2.63281,2.20898-3.63232
		c0.59961-0.99805,0.97266-1.49805,1.12305-1.49805c0.15039,0.05029,0.19922,0.67432,0.15039,1.87256
		c-0.05078,1.19824-0.67383,3.07031-1.87305,5.6167c-0.44922,0.94922-1.08594,2.18506-1.91016,3.70752
		c-0.82324,1.52344-1.79688,2.93359-2.91992,4.23145c-1.12305,1.29883-2.35938,2.33447-3.70703,3.10791
		c-1.34863,0.7749-2.79688,0.88721-4.34375,0.3374c-4.74414-1.69727-3.91992-9.93555,2.4707-24.71533
		c2.19727-5.1416,3.83203-9.46094,4.90625-12.95654c1.07227-3.49414,1.75977-6.36572,2.05859-8.61279
		c0.2998-2.24658,0.31152-3.96924,0.03809-5.16748c-0.27539-1.19824-0.625-2.07129-1.04883-2.62109
		c-0.4248-0.54883-0.84961-0.88623-1.27246-1.01123c-0.42578-0.12402-0.63672-0.23633-0.63672-0.33691
		c0-0.1499,0.22461-0.24951,0.67383-0.2998c0.44922-0.04883,0.99805-0.02441,1.64746,0.0752
		c0.64746,0.10059,1.29785,0.2876,1.94727,0.56152c0.64746,0.2749,1.17285,0.68701,1.57324,1.23584
		c0.79688-0.04932,1.49707,0.03711,2.0957,0.26221c0.59961,0.22461,1.04883,0.67383,1.34863,1.34766
		c0.2998,0.67432,0.46191,1.59863,0.4873,2.77148C546.41699,95.77344,546.2793,97.28418,545.98047,99.13086z"/>
	<path fill="#FFFFFF" d="M558.11133,99.13086c-0.25,1.54834-0.72461,3.43359-1.42285,5.65479
		c-0.7002,2.22217-1.51074,4.60596-2.43359,7.15234c-0.9248,2.54639-1.89844,5.15576-2.9209,7.82617
		c-1.02344,2.67139-1.98438,5.18066-2.88379,7.52686c-0.89844,2.34717-1.68457,4.45605-2.3584,6.32861
		c-0.6748,1.87207-1.1123,3.30811-1.31055,4.30615c-0.40039,1.69824-0.30078,2.54639,0.29883,2.54639
		s1.34766-0.49854,2.24707-1.49756c1.09766-1.19873,2.18359-2.58398,3.25781-4.15674c1.07324-1.57275,2.0459-3.0708,2.9209-4.49365
		c0.87305-1.42285,1.60938-2.63281,2.20898-3.63232c0.59961-0.99805,0.97363-1.49805,1.12305-1.49805
		c0.15039,0.05029,0.19922,0.67432,0.15039,1.87256c-0.05078,1.19824-0.67383,3.07031-1.87305,5.6167
		c-0.44922,0.94922-1.08594,2.18506-1.90918,3.70752c-0.82324,1.52344-1.79785,2.93359-2.9209,4.23145
		c-1.12305,1.29883-2.35938,2.33447-3.70703,3.10791c-1.34766,0.7749-2.79688,0.88721-4.34375,0.3374
		c-4.74316-1.69727-3.91992-9.93555,2.4707-24.71533c2.19727-5.1416,3.83203-9.46094,4.90625-12.95654
		c1.07227-3.49414,1.75977-6.36572,2.05957-8.61279c0.2998-2.24658,0.31152-3.96924,0.03809-5.16748
		c-0.27539-1.19824-0.625-2.07129-1.04883-2.62109c-0.42578-0.54883-0.84961-0.88623-1.27344-1.01123
		c-0.4248-0.12402-0.63672-0.23633-0.63672-0.33691c0-0.1499,0.22461-0.24951,0.67383-0.2998
		c0.44922-0.04883,0.99805-0.02441,1.64844,0.0752c0.64746,0.10059,1.29688,0.2876,1.94727,0.56152
		c0.64746,0.2749,1.17188,0.68701,1.57227,1.23584c0.79785-0.04932,1.49805,0.03711,2.09668,0.26221
		c0.59863,0.22461,1.04883,0.67383,1.34863,1.34766c0.29883,0.67432,0.46094,1.59863,0.48633,2.77148
		C558.54883,95.77344,558.41113,97.28418,558.11133,99.13086z"/>
	<path fill="#FFFFFF" d="M574.13867,128.86377c0.89844-0.09961,1.74609-0.52441,2.5459-1.27344
		c0.79785-0.74854,1.50879-1.54688,2.13379-2.39648c0.62402-0.84814,1.14844-1.61035,1.57324-2.28418
		c0.42383-0.67383,0.76074-0.98535,1.01074-0.93604c0.15039,0.05029,0.1748,0.57422,0.0752,1.57275
		c-0.10059,0.99902-0.44922,2.10986-1.04785,3.33252c-0.59961,1.22412-1.49805,2.39697-2.69727,3.52002
		c-1.19727,1.12354-2.79688,1.83496-4.79297,2.13477c-0.69922,1.49756-1.54785,3.02148-2.54688,4.56836
		c-0.99805,1.54834-2.22168,2.97119-3.66895,4.26904c-1.79785,1.64746-3.5332,2.5835-5.20508,2.80859
		c-1.67285,0.22461-3.1709,0.05029-4.49316-0.52441c-1.32422-0.57324-2.44727-1.39746-3.37109-2.47168
		c-0.92383-1.07275-1.53516-2.1084-1.83398-3.10791c-0.54883-1.74707-0.69922-3.84424-0.4502-6.29102
		c0.24902-2.4458,0.81152-4.83057,1.68457-7.15234s2.04688-4.34375,3.52051-6.06641c1.47168-1.72266,3.18262-2.73389,5.12988-3.0332
		c0.49902-1.69678,1.42383-2.78271,2.77148-3.25781c1.34766-0.47412,2.74609-0.52441,4.19434-0.1499
		c1.44727,0.37451,2.78223,1.08594,4.00684,2.13428c1.22266,1.04883,2.00977,2.27295,2.35938,3.66992
		c0.34766,1.29883,0.44922,2.90918,0.29883,4.83057C575.18652,124.68262,574.78613,126.71777,574.13867,128.86377z
		 M561.33105,124.07031c-1.64746,3.396-2.6709,6.50439-3.07031,9.32471c-0.40039,2.82129-0.2627,4.83057,0.41113,6.02881
		c0.6748,1.19824,1.83594,1.31055,3.48242,0.33691c1.64844-0.97363,3.71973-3.55762,6.2168-7.75146
		c-1.89844-0.2998-3.51953-1.18555-4.86816-2.65869C562.1543,127.87842,561.43066,126.11865,561.33105,124.07031z
		 M569.64453,128.48926c0.74805-1.99658,1.16016-3.88135,1.23535-5.6543c0.0752-1.77197-0.0498-3.23242-0.37402-4.38135
		c-0.32617-1.14795-0.8125-1.90967-1.46094-2.28418c-0.64941-0.37451-1.32324-0.16162-2.02148,0.63623
		c0.69824,0.25049,1.20898,0.6123,1.53516,1.08594c0.32422,0.4751,0.38574,0.76221,0.1875,0.86133
		c-0.05078,0.05029-0.15039,0.01318-0.2998-0.1123c-0.14941-0.12402-0.33691-0.22461-0.56152-0.29932
		c-0.22461-0.0752-0.5-0.09961-0.82422-0.0752c-0.3252,0.02588-0.6875,0.21338-1.08594,0.56201
		c-0.15039,0.5498-0.3125,1.26123-0.48633,2.13428c-0.17578,0.87402-0.20117,1.78564-0.0752,2.73389
		c0.12402,0.94873,0.49805,1.86035,1.12305,2.7334C567.16016,127.30371,568.19531,127.99072,569.64453,128.48926z"/>
</g>
<g>
	<linearGradient id="SVGID_3_" gradientUnits="userSpaceOnUse" x1="212.83415" y1="518.19318" x2="791.8479" y2="390.05081">
		<stop  offset="0" style="stop-color:#005200"/>
		<stop  offset="1" style="stop-color:#003E00"/>
	</linearGradient>
	<path fill="url(#SVGID_3_)" d="M800.45844,638.49994H224.5414c-19.15482,0-30.22983-14.8866-24.90323-32.69348l104.74852-350.17523
		c2.29193-7.66199,13.9313-13.75049,26.04251-13.75049h364.14148c12.11121,0,23.75061,6.0885,26.04254,13.75049l104.74847,350.17523
		C830.68829,623.61334,819.61328,638.49994,800.45844,638.49994z"/>
	<g opacity="0.3">
		<path fill="none" stroke="#FFFFFF" stroke-width="2" stroke-miterlimit="10" d="M364.53784,284.08353h-49.32068l7.2002-26.43021
			c0.66241-2.43161,4.32181-4.39043,8.17761-4.39043h40.24008L364.53784,284.08353z"/>
		<polygon fill="none" stroke="#FFFFFF" stroke-width="2" stroke-miterlimit="10" points="413.85855,284.08353 364.53784,284.08353 
			370.83505,253.26289 418.05667,253.26289 		"/>
		<polygon fill="none" stroke="#FFFFFF" stroke-width="2" stroke-miterlimit="10" points="463.17923,284.08353 413.85855,284.08353 
			418.05667,253.26289 465.27832,253.26289 		"/>
		<polygon fill="none" stroke="#FFFFFF" stroke-width="2" stroke-miterlimit="10" points="512.49994,284.08353 463.17923,284.08353 
			465.27832,253.26289 512.49994,253.26291 		"/>
		<polygon fill="none" stroke="#FFFFFF" stroke-width="2" stroke-miterlimit="10" points="561.82062,284.08353 512.49994,284.08353 
			512.49994,253.26291 559.72156,253.26291 		"/>
		<polygon fill="none" stroke="#FFFFFF" stroke-width="2" stroke-miterlimit="10" points="611.14136,284.08353 561.82062,284.08353 
			559.72156,253.26291 606.94318,253.26291 		"/>
		<polygon fill="none" stroke="#FFFFFF" stroke-width="2" stroke-miterlimit="10" points="660.46204,284.08353 611.14136,284.08353 
			606.94318,253.26291 654.16486,253.26291 		"/>
		<path fill="none" stroke="#FFFFFF" stroke-width="2" stroke-miterlimit="10" d="M709.78271,284.08353h-49.32068l-6.29718-30.82062
			h40.24005c3.85583,0,7.5152,1.9588,8.17761,4.39041L709.78271,284.08353z"/>
		<polygon fill="none" stroke="#FFFFFF" stroke-width="2" stroke-miterlimit="10" points="357.65479,317.77164 306.0397,317.77164 
			315.21716,284.08353 364.53784,284.08353 		"/>
		<polygon fill="none" stroke="#FFFFFF" stroke-width="2" stroke-miterlimit="10" points="409.26984,317.77164 357.65479,317.77164 
			364.53784,284.08353 413.85855,284.08353 		"/>
		<polygon fill="none" stroke="#FFFFFF" stroke-width="2" stroke-miterlimit="10" points="460.88489,317.77164 409.26984,317.77164 
			413.85855,284.08353 463.17923,284.08353 		"/>
		<polygon fill="none" stroke="#FFFFFF" stroke-width="2" stroke-miterlimit="10" points="512.49994,317.77164 460.88489,317.77164 
			463.17923,284.08353 512.49994,284.08353 		"/>
		<polygon fill="none" stroke="#FFFFFF" stroke-width="2" stroke-miterlimit="10" points="564.11499,317.77164 512.49994,317.77164 
			512.49994,284.08353 561.82062,284.08353 		"/>
		<polygon fill="none" stroke="#FFFFFF" stroke-width="2" stroke-miterlimit="10" points="615.73004,317.77164 564.11499,317.77164 
			561.82062,284.08353 611.14136,284.08353 		"/>
		<polygon fill="none" stroke="#FFFFFF" stroke-width="2" stroke-miterlimit="10" points="667.34509,317.77164 615.73004,317.77164 
			611.14136,284.08353 660.46204,284.08353 		"/>
		<polygon fill="none" stroke="#FFFFFF" stroke-width="2" stroke-miterlimit="10" points="718.96014,317.77164 667.34509,317.77164 
			660.46204,284.08353 709.78271,284.08353 		"/>
		<polygon fill="none" stroke="#FFFFFF" stroke-width="2" stroke-miterlimit="10" points="350.10007,354.74698 295.96677,354.74698 
			306.0397,317.77164 357.65479,317.77164 		"/>
		<polygon fill="none" stroke="#FFFFFF" stroke-width="2" stroke-miterlimit="10" points="404.23334,354.74698 350.10007,354.74698 
			357.65479,317.77164 409.26984,317.77164 		"/>
		<polygon fill="none" stroke="#FFFFFF" stroke-width="2" stroke-miterlimit="10" points="458.36664,354.74698 404.23334,354.74698 
			409.26984,317.77164 460.88489,317.77164 		"/>
		<polygon fill="none" stroke="#FFFFFF" stroke-width="2" stroke-miterlimit="10" points="512.49994,354.74698 458.36664,354.74698 
			460.88489,317.77164 512.49994,317.77164 		"/>
		<polygon fill="none" stroke="#FFFFFF" stroke-width="2" stroke-miterlimit="10" points="566.63324,354.74698 512.49994,354.74698 
			512.49994,317.77164 564.11499,317.77164 		"/>
		<polygon fill="none" stroke="#FFFFFF" stroke-width="2" stroke-miterlimit="10" points="620.76654,354.74698 566.63324,354.74698 
			564.11499,317.77164 615.73004,317.77164 		"/>
		<polygon fill="none" stroke="#FFFFFF" stroke-width="2" stroke-miterlimit="10" points="674.89984,354.74698 620.76654,354.74698 
			615.73004,317.77164 667.34509,317.77164 		"/>
		<polygon fill="none" stroke="#FFFFFF" stroke-width="2" stroke-miterlimit="10" points="729.03308,354.74698 674.89984,354.74698 
			667.34509,317.77164 718.96014,317.77164 		"/>
		<polygon fill="none" stroke="#FFFFFF" stroke-width="2" stroke-miterlimit="10" points="341.77036,395.51532 284.8605,395.51532 
			295.96677,354.74698 350.10007,354.74698 		"/>
		<polygon fill="none" stroke="#FFFFFF" stroke-width="2" stroke-miterlimit="10" points="398.68024,395.51532 341.77036,395.51532 
			350.10007,354.74698 404.23334,354.74698 		"/>
		<polygon fill="none" stroke="#FFFFFF" stroke-width="2" stroke-miterlimit="10" points="455.59009,395.51532 398.68024,395.51532 
			404.23334,354.74698 458.36664,354.74698 		"/>
		<polygon fill="none" stroke="#FFFFFF" stroke-width="2" stroke-miterlimit="10" points="512.49994,395.51532 455.59009,395.51532 
			458.36664,354.74698 512.49994,354.74698 		"/>
		<polygon fill="none" stroke="#FFFFFF" stroke-width="2" stroke-miterlimit="10" points="569.40979,395.51532 512.49994,395.51532 
			512.49994,354.74698 566.63324,354.74698 		"/>
		<polygon fill="none" stroke="#FFFFFF" stroke-width="2" stroke-miterlimit="10" points="626.31964,395.51532 569.40979,395.51532 
			566.63324,354.74698 620.76654,354.74698 		"/>
		<polygon fill="none" stroke="#FFFFFF" stroke-width="2" stroke-miterlimit="10" points="683.22949,395.51532 626.31964,395.51532 
			620.76654,354.74698 674.89984,354.74698 		"/>
		<polygon fill="none" stroke="#FFFFFF" stroke-width="2" stroke-miterlimit="10" points="740.13934,395.51532 683.22949,395.51532 
			674.89984,354.74698 729.03308,354.74698 		"/>
		<polygon fill="none" stroke="#FFFFFF" stroke-width="2" stroke-miterlimit="10" points="332.54001,440.69189 272.55334,440.69189 
			284.8605,395.51532 341.77036,395.51532 		"/>
		<polygon fill="none" stroke="#FFFFFF" stroke-width="2" stroke-miterlimit="10" points="392.52664,440.69189 332.54001,440.69189 
			341.77036,395.51532 398.68024,395.51532 		"/>
		<polygon fill="none" stroke="#FFFFFF" stroke-width="2" stroke-miterlimit="10" points="452.51328,440.69189 392.52664,440.69189 
			398.68024,395.51532 455.59009,395.51532 		"/>
		<polygon fill="none" stroke="#FFFFFF" stroke-width="2" stroke-miterlimit="10" points="512.49994,440.69189 452.51328,440.69189 
			455.59009,395.51532 512.49994,395.51532 		"/>
		<polygon fill="none" stroke="#FFFFFF" stroke-width="2" stroke-miterlimit="10" points="572.48657,440.69189 512.49994,440.69189 
			512.49994,395.51532 569.40979,395.51532 		"/>
		<polygon fill="none" stroke="#FFFFFF" stroke-width="2" stroke-miterlimit="10" points="632.47321,440.69189 572.48657,440.69189 
			569.40979,395.51532 626.31964,395.51532 		"/>
		<polygon fill="none" stroke="#FFFFFF" stroke-width="2" stroke-miterlimit="10" points="692.4599,440.69189 632.47321,440.69189 
			626.31964,395.51532 683.22949,395.51532 		"/>
		<polygon fill="none" stroke="#FFFFFF" stroke-width="2" stroke-miterlimit="10" points="752.44653,440.69189 692.4599,440.69189 
			683.22949,395.51532 740.13934,395.51532 		"/>
		<polygon fill="none" stroke="#FFFFFF" stroke-width="2" stroke-miterlimit="10" points="322.25452,491.03253 258.83939,491.03253 
			272.55334,440.69189 332.54001,440.69189 		"/>
		<polygon fill="none" stroke="#FFFFFF" stroke-width="2" stroke-miterlimit="10" points="385.66965,491.03253 322.25452,491.03253 
			332.54001,440.69189 392.52664,440.69189 		"/>
		<polygon fill="none" stroke="#FFFFFF" stroke-width="2" stroke-miterlimit="10" points="449.08481,491.03253 385.66965,491.03253 
			392.52664,440.69189 452.51328,440.69189 		"/>
		<polygon fill="none" stroke="#FFFFFF" stroke-width="2" stroke-miterlimit="10" points="512.49994,491.03253 449.08481,491.03253 
			452.51328,440.69189 512.49994,440.69189 		"/>
		<polygon fill="none" stroke="#FFFFFF" stroke-width="2" stroke-miterlimit="10" points="575.9151,491.03253 512.49994,491.03253 
			512.49994,440.69189 572.48657,440.69189 		"/>
		<polygon fill="none" stroke="#FFFFFF" stroke-width="2" stroke-miterlimit="10" points="639.3302,491.03253 575.9151,491.03253 
			572.48657,440.69189 632.47321,440.69189 		"/>
		<polygon fill="none" stroke="#FFFFFF" stroke-width="2" stroke-miterlimit="10" points="702.74536,491.03253 639.3302,491.03253 
			632.47321,440.69189 692.4599,440.69189 		"/>
		<polygon fill="none" stroke="#FFFFFF" stroke-width="2" stroke-miterlimit="10" points="766.16046,491.03253 702.74536,491.03253 
			692.4599,440.69189 752.44653,440.69189 		"/>
		<polygon fill="none" stroke="#FFFFFF" stroke-width="2" stroke-miterlimit="10" points="310.72205,547.47632 243.46275,547.47632 
			258.83939,491.03253 322.25452,491.03253 		"/>
		<polygon fill="none" stroke="#FFFFFF" stroke-width="2" stroke-miterlimit="10" points="377.98135,547.47632 310.72205,547.47632 
			322.25452,491.03253 385.66965,491.03253 		"/>
		<polygon fill="none" stroke="#FFFFFF" stroke-width="2" stroke-miterlimit="10" points="445.24063,547.47632 377.98135,547.47632 
			385.66965,491.03253 449.08481,491.03253 		"/>
		<polygon fill="none" stroke="#FFFFFF" stroke-width="2" stroke-miterlimit="10" points="512.49994,547.47632 445.24063,547.47632 
			449.08481,491.03253 512.49994,491.03253 		"/>
		<polygon fill="none" stroke="#FFFFFF" stroke-width="2" stroke-miterlimit="10" points="579.75922,547.47632 512.49994,547.47632 
			512.49994,491.03253 575.9151,491.03253 		"/>
		<polygon fill="none" stroke="#FFFFFF" stroke-width="2" stroke-miterlimit="10" points="647.01849,547.47632 579.75922,547.47632 
			575.9151,491.03253 639.3302,491.03253 		"/>
		<polygon fill="none" stroke="#FFFFFF" stroke-width="2" stroke-miterlimit="10" points="714.27783,547.47632 647.01849,547.47632 
			639.3302,491.03253 702.74536,491.03253 		"/>
		<polygon fill="none" stroke="#FFFFFF" stroke-width="2" stroke-miterlimit="10" points="781.53711,547.47638 714.27783,547.47632 
			702.74536,491.03253 766.16046,491.03253 		"/>
		<path fill="none" stroke="#FFFFFF" stroke-width="2" stroke-miterlimit="10" d="M297.70117,611.2049h-61.01379
			c-5.84636,0-9.36763-4.47156-7.87917-9.9353l14.65454-53.79327h67.25929L297.70117,611.2049z"/>
		<polygon fill="none" stroke="#FFFFFF" stroke-width="2" stroke-miterlimit="10" points="369.30075,611.2049 297.70117,611.2049 
			310.72205,547.47632 377.98135,547.47632 		"/>
		<polygon fill="none" stroke="#FFFFFF" stroke-width="2" stroke-miterlimit="10" points="440.90036,611.2049 369.30075,611.2049 
			377.98135,547.47632 445.24063,547.47632 		"/>
		<polygon fill="none" stroke="#FFFFFF" stroke-width="2" stroke-miterlimit="10" points="512.49994,611.2049 440.90036,611.2049 
			445.24063,547.47632 512.49994,547.47632 		"/>
		<polygon fill="none" stroke="#FFFFFF" stroke-width="2" stroke-miterlimit="10" points="584.09949,611.2049 512.49994,611.2049 
			512.49994,547.47632 579.75922,547.47632 		"/>
		<polygon fill="none" stroke="#FFFFFF" stroke-width="2" stroke-miterlimit="10" points="655.6991,611.2049 584.09949,611.2049 
			579.75922,547.47632 647.01849,547.47632 		"/>
		<polygon fill="none" stroke="#FFFFFF" stroke-width="2" stroke-miterlimit="10" points="727.29865,611.2049 655.6991,611.2049 
			647.01849,547.47632 714.27783,547.47632 		"/>
		<path fill="none" stroke="#FFFFFF" stroke-width="2" stroke-miterlimit="10" d="M788.3125,611.2049h-61.01385l-13.02081-63.72858
			l67.25928,0.00006l14.65454,53.79321C797.68011,606.7334,794.15881,611.2049,788.3125,611.2049z"/>
	</g>
</g>
<g>
	
		<radialGradient id="SVGID_4_" cx="429.88101" cy="355.48657" r="98.5" gradientTransform="matrix(0.35315 0 0 0.21043 331.18921 303.19598)" gradientUnits="userSpaceOnUse">
		<stop  offset="0" style="stop-color:#000000;stop-opacity:0.3"/>
		<stop  offset="1" style="stop-color:#000000;stop-opacity:0"/>
	</radialGradient>
	<ellipse fill="url(#SVGID_4_)" cx="483" cy="378" rx="34.78489" ry="20.72707"/>
	<ellipse fill="#CECECE" cx="483.5" cy="368.5" rx="23.88601" ry="16.80418"/>
	<ellipse fill="#EAEAEA" cx="482.5" cy="365.5" rx="19.4862" ry="13.70885"/>
	<ellipse fill="#FFFFFF" cx="496.5" cy="372.5" rx="2.5142" ry="1.21785"/>
	<ellipse fill="#FFFFFF" cx="492.5" cy="379.5" rx="1.8783" ry="0.90983"/>
</g>
<g>
	
		<radialGradient id="SVGID_5_" cx="596.95068" cy="559.83282" r="98.5" gradientTransform="matrix(0.35315 0 0 0.21043 331.18921 303.19598)" gradientUnits="userSpaceOnUse">
		<stop  offset="0" style="stop-color:#000000;stop-opacity:0.3"/>
		<stop  offset="1" style="stop-color:#000000;stop-opacity:0"/>
	</radialGradient>
	<ellipse fill="url(#SVGID_5_)" cx="542" cy="421" rx="34.78489" ry="20.72707"/>
	<ellipse fill="#CECECE" cx="542.5" cy="411.5" rx="23.88601" ry="16.80418"/>
	<ellipse fill="#EAEAEA" cx="541.5" cy="408.5" rx="19.4862" ry="13.70885"/>
	<ellipse fill="#FFFFFF" cx="555.5" cy="415.5" rx="2.5142" ry="1.21785"/>
	<ellipse fill="#FFFFFF" cx="551.5" cy="422.5" rx="1.8783" ry="0.90983"/>
</g>
<g>
	
		<radialGradient id="SVGID_6_" cx="620.30835" cy="62.78748" r="98.5" gradientTransform="matrix(0.34333 0.0827 -0.04928 0.20458 343.47318 255.77722)" gradientUnits="userSpaceOnUse">
		<stop  offset="0" style="stop-color:#000000;stop-opacity:0.3"/>
		<stop  offset="1" style="stop-color:#000000;stop-opacity:0"/>
	</radialGradient>
	<path fill="url(#SVGID_6_)" d="M587.16455,328.06854c-2.68079,11.12894-19.99463,16.50357-38.67157,12.00461
		s-31.64441-17.16788-28.96362-28.29678c2.68079-11.12894,19.99463-16.50357,38.67157-12.00461
		S589.84534,316.93964,587.16455,328.06854z"/>
	
		<ellipse transform="matrix(0.23418 -0.97219 0.97219 0.23418 123.67651 778.61316)" fill="#CECECE" cx="556.0578" cy="310.80371" rx="16.80418" ry="23.88601"/>
	
		<ellipse transform="matrix(0.23418 -0.97219 0.97219 0.23418 126.53316 775.93811)" fill="#EAEAEA" cx="555.78821" cy="307.65295" rx="13.70885" ry="19.4862"/>
	
		<ellipse transform="matrix(0.23418 -0.97219 0.97219 0.23418 125.89751 795.29901)" fill="#FFFFFF" cx="567.75958" cy="317.73691" rx="1.21785" ry="2.5142"/>
	
		<ellipse transform="matrix(0.23418 -0.97219 0.97219 0.23418 115.95863 794.41895)" fill="#FFFFFF" cx="562.23151" cy="323.6055" rx="0.90983" ry="1.8783"/>
</g>
<g>
	
		<radialGradient id="SVGID_7_" cx="594.11902" cy="355.48657" r="98.5" gradientTransform="matrix(0.35315 0 0 0.21043 331.18921 303.19598)" gradientUnits="userSpaceOnUse">
		<stop  offset="0" style="stop-color:#000000;stop-opacity:0.3"/>
		<stop  offset="1" style="stop-color:#000000;stop-opacity:0"/>
	</radialGradient>
	<ellipse fill="url(#SVGID_7_)" cx="541" cy="378" rx="34.78489" ry="20.72707"/>
	<ellipse fill="#2F2F2F" cx="541.5" cy="368.5" rx="23.88601" ry="16.80418"/>
	<ellipse fill="#0C0C0C" cx="540.5" cy="365.5" rx="19.4862" ry="13.70885"/>
	<ellipse fill="#FFFFFF" cx="554.5" cy="372.5" rx="2.5142" ry="1.21785"/>
	<ellipse fill="#FFFFFF" cx="550.5" cy="379.5" rx="1.8783" ry="0.90983"/>
</g>
<g>
	
		<radialGradient id="SVGID_8_" cx="429.88101" cy="564.58508" r="98.5" gradientTransform="matrix(0.35315 0 0 0.21043 331.18921 303.19598)" gradientUnits="userSpaceOnUse">
		<stop  offset="0" style="stop-color:#000000;stop-opacity:0.3"/>
		<stop  offset="1" style="stop-color:#000000;stop-opacity:0"/>
	</radialGradient>
	<ellipse fill="url(#SVGID_8_)" cx="483" cy="422" rx="34.78489" ry="20.72707"/>
	<ellipse fill="#2F2F2F" cx="483.5" cy="412.5" rx="23.88601" ry="16.80418"/>
	<ellipse fill="#0C0C0C" cx="482.5" cy="409.5" rx="19.4862" ry="13.70885"/>
	<ellipse fill="#FFFFFF" cx="496.5" cy="416.5" rx="2.5142" ry="1.21785"/>
	<ellipse fill="#FFFFFF" cx="492.5" cy="423.5" rx="1.8783" ry="0.90983"/>
</g>
<g>
</g>
<g>
</g>
<g>
</g>
<g>
</g>
<g>
</g>
<g>
</g>
<g>
</g>
<g>
</g>
<g>
</g>
<g>
</g>
<g>
</g>
<g>
</g>
<g>
</g>
<g>
</g>
<g>
</g>
</svg>
